<svg xmlns="http://www.w3.org/2000/svg" xmlns:xlink="http://www.w3.org/1999/xlink" width="100%" height="100%" viewBox="0 0 250 700" preserveAspectRatio="xMinYMin meet" ><rect id="svgEditorBackground" x="0" y="0" width="1380" height="800" style="fill: none; stroke: none;"/><defs id="svgEditorDefs"><linearGradient gradientUnits="objectBoundingBox" id="lgrd6-arc" spreadMethod="pad" x1="0.52" x2="0.55" y1="1" y2="0"><stop offset="0.11" style="stop-color:red;stop-opacity:1;"/><stop offset="0.265" style="stop-color:rgb(255, 140, 0);stop-opacity:0.735;"/><stop offset="0.54" stop-color="yellow"/><stop offset="0.7" stop-color="rgb(50, 205, 50)"/><stop offset="0.79" stop-color="#0071FF" stop-opacity="0.605"/><stop offset="1" stop-color="rgb(148, 0, 211)"/></linearGradient><radialGradient cy="60%" fx="45%" fy="45%" gradientUnits="objectBoundingBox" id="rgrd11-b" r="2"><stop offset="0%" stop-color="#48afc1"/><stop offset="10%" stop-color="#b4c63b"/><stop offset="20%" stop-color="#ef5b2b"/><stop offset="30%" stop-color="#503969"/><stop offset="40%" stop-color="#ab6294"/><stop offset="50%" stop-color="#1cb98f"/><stop offset="60%" stop-color="#48afc1"/><stop offset="70%" stop-color="#b4c63b"/><stop offset="80%" stop-color="#ef5b2b"/><stop offset="90%" stop-color="#503969"/><stop offset="100%" stop-color="#ab6294"/></radialGradient><linearGradient gradientUnits="objectBoundingBox" id="lgrd4-green-red-blue" spreadMethod="pad" x1="0%" x2="100%" y1="0%" y2="0%"><stop offset="10%" stop-color="#00cc00" stop-opacity="1"/><stop offset="30%" stop-color="#006600" stop-opacity="1"/><stop offset="70%" stop-color="#cc0000" stop-opacity="1"/><stop offset="90%" stop-color="#000099" stop-opacity="1"/></linearGradient><linearGradient gradientUnits="objectBoundingBox" id="lgrd2-peachpuff-sienna-v" spreadMethod="pad" x1="0%" x2="0%" y1="0%" y2="100%"><stop offset="0%" style="stop-color:peachpuff;  stop-opacity:0.84;"/><stop offset="100%" style="stop-color:sienna;  stop-opacity:1"/></linearGradient><linearGradient gradientUnits="objectBoundingBox" id="lrgd2-e1" spreadMethod="pad" x1="0%" x2="100%" y1="0%" y2="0%"><stop offset="0%" stop-color="lightblue"/><stop offset="100%" stop-color="#ef5b2b"/></linearGradient></defs><path d="M4,0v-1.5a2,2,0,0,0,-2,-2h-4a2,2,0,0,0,-2,2v14.3131a2,2,0,0,0,1.7575,2.0808h4.2425a2,2,0,0,0,2,-2.0808Z" style="fill:white;stroke:black;vector-effect:non-scaling-stroke;stroke-width:1px" id="e1_shape" transform="matrix(24.6429 0 0 32.1364 118.788 136.157)"/><circle id="e3_circle" cx="244.935" cy="290.731" style="fill:white;stroke:black;stroke-width:1px" r="24.591000" transform="matrix(1 0 0 1 -160.996 0)"/><circle id="e4_circle" cx="309.653000" cy="291.727000" style="fill:white;stroke:black;stroke-width:1px" r="24.591000" transform="matrix(1 0 0 1 -160 0)"/><circle id="e1_circle" cx="216.060000" cy="365.407000" style="fill:white;stroke:black;stroke-width:1px" r="24.591000" transform="matrix(1 0 0 1 -160 0)"/><circle id="e5_circle" cx="277.792000" cy="366.403000" style="fill:white;stroke:black;stroke-width:1px" r="24.591000" transform="matrix(1 0 0 1 -160 0)"/><circle id="e6_circle" cx="338.527000" cy="367.398000" style="fill:white;stroke:black;stroke-width:1px" r="24.591000" transform="matrix(1 0 0 1 -160 0)"/><circle id="e7_circle" cx="216.060000" cy="437.095000" style="fill:white;stroke:black;stroke-width:1px" r="24.591000" transform="matrix(1 0 0 1 -160 0)"/><circle id="e8_circle" cx="278.787000" cy="440.082000" style="fill:white;stroke:black;stroke-width:1px" r="24.591000" transform="matrix(1 0 0 1 -160 0)"/><circle id="e9_circle" cx="338.527000" cy="439.086000" style="fill:white;stroke:black;stroke-width:1px" r="24.591000" transform="matrix(1 0 0 1 -160 0)"/><circle id="e10_circle" cx="217.056000" cy="505.796000" style="fill:white;stroke:black;stroke-width:1px" r="24.591000" transform="matrix(1 0 0 1 -160 0)"/><circle id="e11_circle" cx="278.788000" cy="506.792000" style="fill:white;stroke:black;stroke-width:1px" r="24.591000" transform="matrix(1 0 0 1 -160 0)"/><circle id="e12_circle" cx="339.523000" cy="507.787000" style="fill:white;stroke:black;stroke-width:1px" r="24.591000" transform="matrix(1 0 0 1 -160 0)"/><circle id="e14_circle" cx="430.939" cy="276.123" style="fill:white;stroke:url(#lgrd6-arc);stroke-width:10px" r="25.185300" transform="matrix(-1.97186 -1.96435 1.96435 -1.97186 430.117 1568.21)"/><circle id="e2_circle" cx="282.769" cy="177.231" style="fill:white;stroke:black;stroke-width:1px" r="24.591000" transform="matrix(1 0 0 1 -160 0)"/><path d="M201.125974,91.601303q84.632,-77.663,162.294,0.996" style="fill:none;stroke:url(#lrgd2-e1);stroke-width:20px" id="e3_arc2" transform="matrix(1 0 0 1 -160 0)"/><text style="fill:black;font-family:Arial;font-size:20px" x="235.974" y="289.74" id="e4_texte"></text><text style="fill:black;font-family:Arial;font-size:20px" x="204.113" y="372.381" id="e5_texte" transform="matrix(1 0 0 1 -160 0)">S1</text><text style="fill:black;font-family:Arial;font-size:20px" x="266.84" y="373.377" id="e1_texte" transform="matrix(1 0 0 1 -160 0)">S2</text><text style="fill:black;font-family:Arial;font-size:20px" x="326.58" y="375.368" id="e2_texte" transform="matrix(1 0 0 1 -160 0)">S3</text><text style="fill:black;font-family:Arial;font-size:20px" x="203.117" y="444.069" id="e3_texte" transform="matrix(1 0 0 1 -160 0)">S4</text><text style="fill:black;font-family:Arial;font-size:20px" x="265.844" y="446.06" id="e6_texte" transform="matrix(1 0 0 1 -160 0)">S5</text><text style="fill:black;font-family:Arial;font-size:20px" x="211.083" y="513.766" id="e7_texte" transform="matrix(1 0 0 1 -160 0)">1</text><text style="fill:black;font-family:Arial;font-size:20px" x="273.81" y="513.766" id="e8_texte" transform="matrix(1 0 0 1 -160 0)">2</text><text style="fill:black;font-family:Arial;font-size:20px" x="332.554" y="513.766" id="e9_texte" transform="matrix(1 0 0 1 -160 0)">3</text><path d="M-608.9633565855829,63.260001414417076c-0.07400000000000001,0.09100000000000003,-0.139,0.18700000000000003,-0.20900000000000002,0.279c-0.08700000000000002,0.11500000000000002,-0.17700000000000002,0.22900000000000004,-0.257,0.3490000000000001c-0.07500000000000001,0.11300000000000002,-0.14100000000000001,0.23,-0.21000000000000002,0.3450000000000001c-0.06500000000000002,0.10800000000000001,-0.133,0.21400000000000002,-0.19300000000000003,0.32500000000000007c-0.06300000000000001,0.11900000000000002,-0.11700000000000002,0.24200000000000002,-0.17500000000000002,0.36300000000000004c-0.05400000000000001,0.11500000000000002,-0.11100000000000002,0.22800000000000004,-0.16100000000000003,0.3460000000000001c-0.04900000000000001,0.11900000000000002,-0.08900000000000002,0.24000000000000002,-0.132,0.36100000000000004c-0.04500000000000001,0.125,-0.09300000000000003,0.25,-0.133,0.37800000000000006c-0.037000000000000005,0.12200000000000001,-0.06400000000000002,0.24500000000000002,-0.09400000000000003,0.36900000000000005c-0.03300000000000001,0.13,-0.06900000000000002,0.258,-0.09500000000000003,0.39000000000000007c-0.028000000000000004,0.14300000000000002,-0.04500000000000001,0.28700000000000003,-0.06600000000000002,0.43200000000000005c-0.017000000000000005,0.11400000000000002,-0.038000000000000006,0.22700000000000004,-0.05000000000000001,0.3420000000000001c-0.05200000000000001,0.525,-0.05200000000000001,1.055,0,1.58c0.011000000000000003,0.11500000000000002,0.03300000000000001,0.22800000000000004,0.05000000000000001,0.3420000000000001c0.021000000000000005,0.14400000000000002,0.037000000000000005,0.28900000000000003,0.06600000000000002,0.43200000000000005c0.026000000000000006,0.132,0.06200000000000001,0.26,0.09500000000000003,0.39000000000000007c0.031000000000000007,0.12300000000000001,0.05800000000000001,0.24700000000000003,0.09400000000000003,0.36900000000000005c0.03900000000000001,0.129,0.08700000000000002,0.252,0.133,0.37800000000000006c0.04400000000000001,0.12000000000000001,0.08300000000000002,0.24200000000000002,0.132,0.36100000000000004s0.10700000000000001,0.231,0.16100000000000003,0.3460000000000001c0.05700000000000001,0.12200000000000001,0.11100000000000002,0.24300000000000002,0.17500000000000002,0.36300000000000004c0.05900000000000001,0.11100000000000002,0.128,0.21700000000000003,0.19300000000000003,0.32500000000000007c0.06900000000000002,0.11500000000000002,0.134,0.232,0.21000000000000002,0.3450000000000001c0.08000000000000002,0.12000000000000001,0.17,0.234,0.257,0.3490000000000001c0.07,0.09300000000000003,0.134,0.18900000000000003,0.20900000000000002,0.279c0.3350000000000001,0.40800000000000003,0.7090000000000001,0.782,1.117,1.117c0.09100000000000003,0.07400000000000001,0.18500000000000003,0.138,0.277,0.20700000000000002c0.11600000000000002,0.08700000000000002,0.23,0.17700000000000002,0.35100000000000003,0.258c0.11300000000000002,0.07600000000000001,0.23,0.14100000000000001,0.3460000000000001,0.21000000000000002c0.10900000000000001,0.06500000000000002,0.21400000000000002,0.132,0.32500000000000007,0.19200000000000003c0.11800000000000002,0.06300000000000001,0.24000000000000002,0.11700000000000002,0.36100000000000004,0.17400000000000002c0.11500000000000002,0.05500000000000001,0.23,0.11300000000000002,0.3490000000000001,0.16200000000000003c0.11700000000000002,0.04900000000000001,0.23700000000000002,0.08800000000000002,0.35600000000000004,0.131c0.127,0.04500000000000001,0.253,0.09400000000000003,0.38200000000000006,0.133c0.12000000000000001,0.037000000000000005,0.24100000000000002,0.06300000000000001,0.36200000000000004,0.09300000000000003c0.131,0.03300000000000001,0.262,0.07,0.3960000000000001,0.09700000000000003c0.139,0.028000000000000004,0.28,0.04300000000000001,0.42100000000000004,0.06400000000000002c0.11800000000000002,0.017000000000000005,0.234,0.03900000000000001,0.35300000000000004,0.05100000000000001c0.262,0.028000000000000004,0.525,0.04300000000000001,0.788,0.04300000000000001h8v46.222c0,5.4,4.378,9.778,9.778,9.778h22.222v-48h32v48h22.222c5.4,0,9.778,-4.378,9.778,-9.778v-46.222h8c0.263,0,0.526,-0.014000000000000002,0.789,-0.04000000000000001c0.11900000000000002,-0.011000000000000003,0.23600000000000002,-0.03400000000000001,0.35300000000000004,-0.05100000000000001c0.14100000000000001,-0.020000000000000004,0.281,-0.037000000000000005,0.42100000000000004,-0.06400000000000002c0.134,-0.027000000000000007,0.265,-0.06400000000000002,0.3970000000000001,-0.09700000000000003c0.12100000000000001,-0.030000000000000006,0.24200000000000002,-0.05700000000000001,0.36200000000000004,-0.09300000000000003c0.13,-0.03900000000000001,0.255,-0.08800000000000002,0.38200000000000006,-0.133c0.11900000000000002,-0.04300000000000001,0.23900000000000002,-0.08200000000000002,0.35600000000000004,-0.131c0.11900000000000002,-0.04900000000000001,0.233,-0.10700000000000001,0.3490000000000001,-0.16200000000000003c0.12100000000000001,-0.05700000000000001,0.24200000000000002,-0.11000000000000001,0.36100000000000004,-0.17400000000000002c0.11100000000000002,-0.05900000000000001,0.21700000000000003,-0.128,0.32500000000000007,-0.19200000000000003c0.11500000000000002,-0.06900000000000002,0.233,-0.134,0.3460000000000001,-0.21000000000000002c0.12100000000000001,-0.08100000000000002,0.23500000000000001,-0.171,0.35100000000000003,-0.258c0.09300000000000003,-0.06900000000000002,0.18700000000000003,-0.133,0.277,-0.20700000000000002c0.40800000000000003,-0.3350000000000001,0.782,-0.7090000000000001,1.117,-1.117c0.07400000000000001,-0.09100000000000003,0.139,-0.18700000000000003,0.20900000000000002,-0.279c0.08700000000000002,-0.11500000000000002,0.17700000000000002,-0.22900000000000004,0.257,-0.3490000000000001c0.07600000000000001,-0.11300000000000002,0.14100000000000001,-0.23,0.21000000000000002,-0.3450000000000001c0.06500000000000002,-0.10900000000000001,0.132,-0.21400000000000002,0.19300000000000003,-0.32500000000000007c0.06400000000000002,-0.12000000000000001,0.11800000000000002,-0.24300000000000002,0.17500000000000002,-0.36500000000000005c0.05400000000000001,-0.11500000000000002,0.11100000000000002,-0.22700000000000004,0.16000000000000003,-0.3440000000000001c0.05000000000000001,-0.12000000000000001,0.09000000000000002,-0.24200000000000002,0.133,-0.36300000000000004c0.04400000000000001,-0.12400000000000001,0.09300000000000003,-0.24800000000000003,0.131,-0.37600000000000006c0.037000000000000005,-0.12200000000000001,0.06400000000000002,-0.24500000000000002,0.09500000000000003,-0.36900000000000005c0.03300000000000001,-0.13,0.06900000000000002,-0.258,0.09500000000000003,-0.39000000000000007c0.028000000000000004,-0.14300000000000002,0.04500000000000001,-0.28700000000000003,0.06600000000000002,-0.43200000000000005c0.017000000000000005,-0.11400000000000002,0.038000000000000006,-0.22700000000000004,0.05000000000000001,-0.3420000000000001c0.05300000000000001,-0.525,0.05300000000000001,-1.055,0,-1.581c-0.011000000000000003,-0.11500000000000002,-0.03300000000000001,-0.22700000000000004,-0.05000000000000001,-0.3420000000000001c-0.020000000000000004,-0.14400000000000002,-0.037000000000000005,-0.28900000000000003,-0.06600000000000002,-0.43200000000000005c-0.026000000000000006,-0.133,-0.06200000000000001,-0.261,-0.09500000000000003,-0.39000000000000007c-0.031000000000000007,-0.12300000000000001,-0.05800000000000001,-0.24700000000000003,-0.09500000000000003,-0.36900000000000005c-0.038000000000000006,-0.128,-0.08600000000000002,-0.251,-0.131,-0.37600000000000006c-0.04300000000000001,-0.12200000000000001,-0.08400000000000002,-0.24300000000000002,-0.133,-0.36300000000000004c-0.04900000000000001,-0.11700000000000002,-0.10600000000000001,-0.23,-0.16000000000000003,-0.3440000000000001c-0.05700000000000001,-0.12200000000000001,-0.11100000000000002,-0.24500000000000002,-0.17500000000000002,-0.36400000000000005c-0.05900000000000001,-0.11100000000000002,-0.128,-0.21700000000000003,-0.19300000000000003,-0.32500000000000007c-0.06900000000000002,-0.11500000000000002,-0.134,-0.232,-0.21000000000000002,-0.3450000000000001c-0.08000000000000002,-0.12000000000000001,-0.17,-0.234,-0.257,-0.3490000000000001c-0.07,-0.09300000000000003,-0.134,-0.18800000000000003,-0.20900000000000002,-0.279c-0.16800000000000004,-0.20500000000000002,-0.3450000000000001,-0.401,-0.531,-0.5870000000000001l-55.999,-56.002c-1.448,-1.448,-3.448,-2.343,-5.657,-2.343s-4.209,0.8950000000000001,-5.657,2.343l-55.999,55.999c-0.18700000000000003,0.18700000000000003,-0.36300000000000004,0.38300000000000006,-0.531,0.5870000000000001Z" style="fill:white;stroke:black;vector-effect:non-scaling-stroke;stroke-width:1px" id="e6_shape" transform="matrix(0.252531 0 0 0.252531 316.855 420.093)"/><g style="fill:white;stroke:black;vector-effect:non-scaling-stroke;stroke-width:5.19px" id="e7_shape" transform="matrix(0.280032 0 0 0.280032 131.732 273.81)"><path d="M72 16.677v-8.677c0-4.419-3.581-8-8-8s-8 3.581-8 8v8.677c2.603-0.436 5.273-0.677 8-0.677s5.397 0.24 8 0.677z" style="stroke:black;stroke-width:5.19px"/><path d="M18.745 109.255c3.125 3.124 8.189 3.124 11.314 0l6.139-6.139c-4.373-3.114-8.199-6.941-11.314-11.314l-6.139 6.139c-3.123 3.123-3.123 8.189 0 11.314z" style="stroke:black;stroke-width:5.19px"/><path d="M56,111.323v8.677c0,4.419,3.581,8,8,8s8,-3.581,8,-8v-8.677c-2.603,0.436,-5.273,0.677,-8,0.677s-5.397,-0.24,-8,-0.677Z" style="stroke:black;stroke-width:5.19px"/><path d="M36.197 24.884l-6.139-6.139c-3.125-3.124-8.189-3.124-11.314 0s-3.124 8.189 0 11.314l6.139 6.139c3.115-4.374 6.941-8.2 11.314-11.314z" style="stroke:black;stroke-width:5.19px"/><path d="M8 72h8.677c-0.437-2.603-0.677-5.273-0.677-8s0.239-5.397 0.677-8h-8.677c-4.419 0-8 3.581-8 8s3.581 8 8 8z" style="stroke:black;stroke-width:5.19px"/><path d="M120 56h-8.677c0.437 2.603 0.677 5.273 0.677 8s-0.239 5.397-0.677 8h8.677c4.419 0 8-3.581 8-8s-3.581-8-8-8z" style="stroke:black;stroke-width:5.19px"/><path d="M109.255,18.745c-3.124,-3.124,-8.189,-3.124,-11.314,0l-6.139,6.139c4.373,3.114,8.199,6.941,11.314,11.314l6.139,-6.139c3.123,-3.123,3.123,-8.189,0,-11.314Z" style="stroke:black;stroke-width:5.19px"/><path d="M109.255 109.255c3.124-3.124 3.124-8.189 0-11.314l-6.139-6.139c-3.114 4.373-6.941 8.2-11.314 11.314l6.139 6.139c3.123 3.123 8.189 3.123 11.314 0z" style="stroke:black;stroke-width:5.19px"/><path d="M104 64c0 22.091-17.909 40-40 40s-40-17.909-40-40c0-22.091 17.909-40 40-40s40 17.909 40 40z" style="stroke:black;stroke-width:5.19px"/></g><g style="fill:white;stroke:black;vector-effect:non-scaling-stroke;stroke-width:6.37px" id="e16_shape" transform="matrix(0.195022 0 0 0.195022 71.9555 277.757)"><path d="M72 16.677v-8.677c0-4.419-3.581-8-8-8s-8 3.581-8 8v8.677c2.603-0.436 5.273-0.677 8-0.677s5.397 0.24 8 0.677z" id="e16_path" style="stroke:black;stroke-width:6.37px"/><path d="M18.745 109.255c3.125 3.124 8.189 3.124 11.314 0l6.139-6.139c-4.373-3.114-8.199-6.941-11.314-11.314l-6.139 6.139c-3.123 3.123-3.123 8.189 0 11.314z" id="e17_path" style="stroke:black;stroke-width:6.37px"/><path d="M56,111.323v8.677c0,4.419,3.581,8,8,8s8,-3.581,8,-8v-8.677c-2.603,0.436,-5.273,0.677,-8,0.677s-5.397,-0.24,-8,-0.677Z" id="e18_path" style="stroke:black;stroke-width:6.37px"/><path d="M36.197 24.884l-6.139-6.139c-3.125-3.124-8.189-3.124-11.314 0s-3.124 8.189 0 11.314l6.139 6.139c3.115-4.374 6.941-8.2 11.314-11.314z" id="e19_path" style="stroke:black;stroke-width:6.37px"/><path d="M8 72h8.677c-0.437-2.603-0.677-5.273-0.677-8s0.239-5.397 0.677-8h-8.677c-4.419 0-8 3.581-8 8s3.581 8 8 8z" id="e20_path" style="stroke:black;stroke-width:6.37px"/><path d="M120 56h-8.677c0.437 2.603 0.677 5.273 0.677 8s-0.239 5.397-0.677 8h8.677c4.419 0 8-3.581 8-8s-3.581-8-8-8z" id="e21_path" style="stroke:black;stroke-width:6.37px"/><path d="M109.255 18.745c-3.124-3.124-8.189-3.124-11.314 0l-6.139 6.139c4.373 3.114 8.199 6.941 11.314 11.314l6.139-6.139c3.123-3.123 3.123-8.189 0-11.314z" id="e22_path" style="stroke:black;stroke-width:6.37px"/><path d="M109.255 109.255c3.124-3.124 3.124-8.189 0-11.314l-6.139-6.139c-3.114 4.373-6.941 8.2-11.314 11.314l6.139 6.139c3.123 3.123 8.189 3.123 11.314 0z" id="e23_path" style="stroke:black;stroke-width:6.37px"/><path d="M104 64c0 22.091-17.909 40-40 40s-40-17.909-40-40c0-22.091 17.909-40 40-40s40 17.909 40 40z" id="e24_path" style="stroke:black;stroke-width:6.37px"/></g><circle id="e13_circle" cx="277.792" cy="173.247" style="fill:white;stroke:black;stroke-width:1px" r="9.957000" transform="matrix(1.3674 0 0 1.3674 -256.336 -57.9258)"/><path d="M283.766,180.216v-21.905" style="fill:none;stroke:black;stroke-width:1px" id="e15_pathV" transform="matrix(1 0 0 1 -160 0)"/></svg>